<svg id="visual" viewBox="0 0 900 600" width="900" height="600" xmlns="http://www.w3.org/2000/svg" xmlns:xlink="http://www.w3.org/1999/xlink" version="1.1"><rect x="0" y="0" width="900" height="600" fill="#F1FAEE"></rect><g fill="none" stroke="#E63946" stroke-width="7"><path d="M32.7 18.9L32.7 84.2L-32.7 84.2L-32.7 18.9L-89.2 -13.8L-56.6 -70.4L0 -37.7L56.6 -70.4L89.2 -13.8Z" transform="translate(506 309)"></path><path d="M8.4 4.8L8.4 21.6L-8.4 21.6L-8.4 4.8L-22.9 -3.5L-14.5 -18L0 -9.7L14.5 -18L22.9 -3.5Z" transform="translate(746 141)"></path><path d="M28.3 16.4L28.3 73L-28.3 73L-28.3 16.4L-77.4 -12L-49.1 -61.1L0 -32.7L49.1 -61.1L77.4 -12Z" transform="translate(147 444)"></path><path d="M11.6 6.7L11.6 29.9L-11.6 29.9L-11.6 6.7L-31.7 -4.9L-20.1 -25L0 -13.4L20.1 -25L31.7 -4.9Z" transform="translate(164 161)"></path><path d="M15.1 8.7L15.1 38.9L-15.1 38.9L-15.1 8.7L-41.3 -6.4L-26.2 -32.6L0 -17.4L26.2 -32.6L41.3 -6.4Z" transform="translate(776 395)"></path></g></svg>