<svg id="visual" viewBox="0 0 900 600" width="900" height="600" xmlns="http://www.w3.org/2000/svg" xmlns:xlink="http://www.w3.org/1999/xlink" version="1.1"><path d="M0 73L21.5 76C43 79 86 85 128.8 84C171.7 83 214.3 75 257.2 77C300 79 343 91 385.8 92C428.7 93 471.3 83 514.2 81C557 79 600 85 642.8 88C685.7 91 728.3 91 771.2 92C814 93 857 95 878.5 96L900 97L900 0L878.5 0C857 0 814 0 771.2 0C728.3 0 685.7 0 642.8 0C600 0 557 0 514.2 0C471.3 0 428.7 0 385.8 0C343 0 300 0 257.2 0C214.3 0 171.7 0 128.8 0C86 0 43 0 21.5 0L0 0Z" fill="#d8d8d8"></path><path d="M0 133L21.5 134C43 135 86 137 128.8 133C171.7 129 214.3 119 257.2 123C300 127 343 145 385.8 155C428.7 165 471.3 167 514.2 168C557 169 600 169 642.8 169C685.7 169 728.3 169 771.2 171C814 173 857 177 878.5 179L900 181L900 95L878.5 94C857 93 814 91 771.2 90C728.3 89 685.7 89 642.8 86C600 83 557 77 514.2 79C471.3 81 428.7 91 385.8 90C343 89 300 77 257.2 75C214.3 73 171.7 81 128.8 82C86 83 43 77 21.5 74L0 71Z" fill="#cfcfcf"></path><path d="M0 253L21.5 247C43 241 86 229 128.8 231C171.7 233 214.3 249 257.2 252C300 255 343 245 385.8 239C428.7 233 471.3 231 514.2 234C557 237 600 245 642.8 253C685.7 261 728.3 269 771.2 280C814 291 857 305 878.5 312L900 319L900 179L878.5 177C857 175 814 171 771.2 169C728.3 167 685.7 167 642.8 167C600 167 557 167 514.2 166C471.3 165 428.7 163 385.8 153C343 143 300 125 257.2 121C214.3 117 171.7 127 128.8 131C86 135 43 133 21.5 132L0 131Z" fill="#c7c7c7"></path><path d="M0 421L21.5 416C43 411 86 401 128.8 395C171.7 389 214.3 387 257.2 391C300 395 343 405 385.8 422C428.7 439 471.3 463 514.2 472C557 481 600 475 642.8 458C685.7 441 728.3 413 771.2 409C814 405 857 425 878.5 435L900 445L900 317L878.5 310C857 303 814 289 771.2 278C728.3 267 685.7 259 642.8 251C600 243 557 235 514.2 232C471.3 229 428.7 231 385.8 237C343 243 300 253 257.2 250C214.3 247 171.7 231 128.8 229C86 227 43 239 21.5 245L0 251Z" fill="#b5b5b5"></path><path d="M0 601L21.5 601C43 601 86 601 128.8 601C171.7 601 214.3 601 257.2 601C300 601 343 601 385.8 601C428.7 601 471.3 601 514.2 601C557 601 600 601 642.8 601C685.7 601 728.3 601 771.2 601C814 601 857 601 878.5 601L900 601L900 443L878.5 433C857 423 814 403 771.2 407C728.3 411 685.7 439 642.8 456C600 473 557 479 514.2 470C471.3 461 428.7 437 385.8 420C343 403 300 393 257.2 389C214.3 385 171.7 387 128.8 393C86 399 43 409 21.5 414L0 419Z" fill="#a4a4a4"></path></svg>