<svg id="visual" viewBox="0 0 900 450" width="900" height="450" xmlns="http://www.w3.org/2000/svg" xmlns:xlink="http://www.w3.org/1999/xlink" version="1.1"><rect x="0" y="0" width="900" height="450" fill="#060606"></rect><g fill="none" stroke="#100e0b" stroke-width="4"><path d="M0 -103.8L23.3 -32.1L98.7 -32.1L37.7 12.3L61 84L0 39.7L-61 84L-37.7 12.3L-98.7 -32.1L-23.3 -32.1Z" transform="translate(866 306)"></path><path d="M0 -33L7.4 -10.2L31.4 -10.2L12 3.9L19.4 26.7L0 12.6L-19.4 26.7L-12 3.9L-31.4 -10.2L-7.4 -10.2Z" transform="translate(349 336)"></path><path d="M0 -57.6L12.9 -17.8L54.8 -17.8L20.9 6.8L33.8 46.6L0 22L-33.8 46.6L-20.9 6.8L-54.8 -17.8L-12.9 -17.8Z" transform="translate(657 141)"></path><path d="M0 -51L11.4 -15.7L48.5 -15.7L18.5 6L30 41.2L0 19.5L-30 41.2L-18.5 6L-48.5 -15.7L-11.4 -15.7Z" transform="translate(258 3)"></path><path d="M0 -101L22.7 -31.2L96 -31.2L36.7 11.9L59.4 81.7L0 38.6L-59.4 81.7L-36.7 11.9L-96 -31.2L-22.7 -31.2Z" transform="translate(113 218)"></path><path d="M0 -71.7L16.1 -22.2L68.2 -22.2L26.1 8.5L42.2 58L0 27.4L-42.2 58L-26.1 8.5L-68.2 -22.2L-16.1 -22.2Z" transform="translate(880 30)"></path><path d="M0 -36.8L8.3 -11.4L35 -11.4L13.4 4.3L21.6 29.8L0 14.1L-21.6 29.8L-13.4 4.3L-35 -11.4L-8.3 -11.4Z" transform="translate(626 404)"></path><path d="M0 -95.3L21.4 -29.5L90.7 -29.5L34.6 11.3L56 77.1L0 36.4L-56 77.1L-34.6 11.3L-90.7 -29.5L-21.4 -29.5Z" transform="translate(77 441)"></path></g></svg>